<?xml version="1.0" standalone="no"?>
<!DOCTYPE svg PUBLIC "-//W3C//DTD SVG 1.1//EN" "http://www.w3.org/Graphics/SVG/1.1/DTD/svg11.dtd">
<svg xmlns="http://www.w3.org/2000/svg" width="2311" height="800" viewBox="0 0 2311 800" fill="none">
<path d="M739.583 431.14H712.419V671.921H739.583V431.14Z" fill="white"/>
<path d="M959.395 431.14H770.224V456.242H851.034V671.921H878.548V456.242H959.395V431.14Z" fill="white"/>
<path d="M1055.35 427.705C1009.6 427.705 976.249 455.562 976.249 493.402V494.083C976.249 533.661 1001.7 551.533 1057.09 563.571C1107.64 574.237 1119.67 586.97 1119.67 609.313V610.018C1119.67 633.753 1098.35 650.951 1066.04 650.951C1032.66 650.951 1008.59 639.598 983.487 616.889L966.62 636.833C995.52 662.641 1026.8 675.361 1065 675.361C1112.81 675.361 1147.19 648.541 1147.19 607.253V606.566C1147.19 569.773 1122.42 550.141 1068.79 538.475C1015.8 527.099 1003.43 514.385 1003.43 491.674V490.993C1003.43 469.318 1023.36 452.121 1054.66 452.121C1079.43 452.121 1101.8 460.039 1124.16 478.273L1139.99 457.297C1115.55 437.677 1090.44 427.705 1055.35 427.705Z" fill="white"/>
<path d="M1180.46 433.972H1247.5V674.759H1180.46V433.972Z" fill="white"/>
<path d="M1281.58 433.972H1343.85L1442.9 561.265V433.972H1508.93V674.758H1450.47L1347.61 542.688V674.758H1281.58V433.972Z" fill="white"/>
<path d="M1533.36 555.088V554.394C1533.36 484.232 1587.37 429.205 1660.29 429.205C1709.48 429.205 1741.12 449.813 1762.46 479.417L1712.24 518.278C1698.49 501.098 1682.66 490.07 1659.6 490.07C1625.89 490.07 1602.16 518.615 1602.16 553.702V554.394C1602.16 590.513 1625.89 618.721 1659.6 618.721C1684.72 618.721 1699.52 607.017 1713.96 589.489L1764.17 625.257C1741.47 656.555 1710.86 679.591 1657.55 679.591C1588.74 679.591 1533.36 626.962 1533.36 555.088Z" fill="white"/>
<path d="M1767.63 555.088V554.394C1767.63 485.262 1823.36 429.205 1897.63 429.205C1971.95 429.205 2026.96 484.569 2026.96 553.702V554.394C2026.96 623.528 1971.24 679.591 1896.97 679.591C1822.65 679.591 1767.63 624.226 1767.63 555.088ZM1958.86 555.088V554.394C1958.86 519.664 1933.77 489.39 1896.97 489.39C1860.5 489.39 1836.08 518.982 1836.08 553.702V554.394C1836.08 589.14 1861.19 619.406 1897.63 619.406C1934.46 619.406 1958.86 589.821 1958.86 555.088Z" fill="white"/>
<path d="M300.327 2.22926C265.612 11.5093 244.956 47.4826 254.2 82.6119C263.456 117.561 299.26 138.349 333.963 129.011C361.571 121.539 380.205 97.3146 382.089 70.1386V61.0399C381.806 56.9426 381.138 52.7852 380.053 48.6879C372.293 19.3412 345.978 -7.62939e-05 317.199 -7.62939e-05C311.631 -7.62939e-05 305.967 0.722595 300.327 2.22926Z" fill="url(#paint0_radial_127_2)"/>
<path d="M596.685 135.337C591.146 135.337 585.513 136.06 579.909 137.567C545.121 146.967 524.453 182.88 533.666 217.949C543.007 252.959 578.679 273.748 613.447 264.408C648.174 255.067 668.817 218.973 659.538 184.025C651.758 154.74 625.409 135.337 596.695 135.337H596.685Z" fill="url(#paint1_radial_127_2)"/>
<path d="M369.357 170.407C361.585 170.407 353.666 171.431 345.797 173.54C297.163 186.677 268.277 236.991 281.315 285.919C294.289 334.969 344.182 364.013 392.786 350.876C441.358 337.863 470.301 287.487 457.261 238.557C446.414 197.523 409.615 170.407 369.369 170.407H369.357Z" fill="url(#paint2_radial_127_2)"/>
<path d="M391.123 243.618L397.395 267.3L599.799 212.768L593.478 189.206L391.123 243.618Z" fill="url(#paint3_radial_127_2)"/>
<path d="M305.365 68.7533L359.475 272.723L382.958 266.396L328.858 62.4253L305.365 68.7533Z" fill="url(#paint4_radial_127_2)"/>
<path d="M729.466 254.104C723.976 254.104 718.402 254.767 712.842 256.273C678.055 265.552 657.369 301.587 666.527 336.535C675.807 371.545 711.43 392.453 746.151 383.235C780.936 373.895 801.703 337.981 792.398 302.972C784.727 273.508 758.364 254.104 729.478 254.104H729.466Z" fill="url(#paint5_radial_127_2)"/>
<path d="M577.859 537.615C543.031 546.893 522.422 582.867 531.551 617.876C540.752 652.765 576.51 673.661 611.156 664.388C645.878 655.115 666.714 619.203 657.452 584.313C649.77 554.847 623.352 535.445 594.476 535.445C588.988 535.445 583.414 536.107 577.859 537.615Z" fill="url(#paint6_radial_127_2)"/>
<path d="M534.33 280.075C526.617 280.075 518.765 281.039 510.962 283.147C462.286 296.043 433.315 346.357 446.245 395.345C459.05 444.335 508.984 473.561 557.564 460.604C606.21 447.529 635.206 397.336 622.376 348.285C611.488 307.251 574.623 280.075 534.342 280.075H534.33Z" fill="url(#paint7_radial_127_2)"/>
<path d="M529.123 400.108L582.758 604.197L606.21 597.929L552.647 393.9L529.123 400.108Z" fill="url(#paint8_radial_127_2)"/>
<path d="M523.838 362.024L530.099 385.645L732.582 331.595L726.375 307.913L523.838 362.024Z" fill="url(#paint9_radial_127_2)"/>
<path d="M459.882 671.115C425.083 680.345 404.3 716.192 413.37 751.201C419.69 775.575 438.827 793.152 461.587 798.509H490.938C491.588 798.352 492.239 798.189 492.89 798.021C527.659 788.873 548.43 752.996 539.33 717.927C531.703 688.425 505.231 668.961 476.374 668.961C470.922 668.961 465.383 669.661 459.882 671.115Z" fill="url(#paint10_radial_127_2)"/>
<path d="M197.554 532.372C192.094 532.372 186.537 533.093 181.011 534.541C146.255 543.7 125.359 579.673 134.505 614.683C143.647 649.752 179.241 670.769 214.009 661.513C248.826 652.283 269.571 616.491 260.551 581.42C252.85 551.896 226.422 532.372 197.565 532.372H197.554Z" fill="url(#paint11_radial_127_2)"/>
<path d="M401.933 449.095C353.383 461.871 324.303 512.064 337.011 561.113C349.792 610.104 399.522 639.509 448.227 626.673C496.905 613.779 525.959 563.585 513.21 514.596C502.502 473.32 465.66 446.023 425.24 446.023C417.551 446.023 409.725 447.048 401.933 449.095Z" fill="url(#paint12_radial_127_2)"/>
<path d="M194.419 586.181L200.559 609.863L403.241 556.293L397.082 532.552L194.419 586.181Z" fill="url(#paint13_radial_127_2)"/>
<path d="M411.411 533.636L464.565 737.692L488.075 731.477L434.863 527.429L411.411 533.636Z" fill="url(#paint14_radial_127_2)"/>
<path d="M65.1312 413.001C59.7325 413.001 54.2365 413.665 48.7659 415.111C14.0339 424.329 -6.9608 460.123 2.11387 495.193C11.2019 530.201 46.7592 551.292 81.5632 542.193C107.757 535.324 126.082 513.269 129.679 487.841V469.403C129.335 466.993 128.859 464.581 128.239 462.172C120.574 432.647 94.1259 413.001 65.1432 413.001H65.1312Z" fill="url(#paint15_radial_127_2)"/>
<path d="M185.043 134.433C150.214 143.592 129.323 179.445 138.41 214.455C147.503 249.524 183.018 270.555 217.744 261.516C252.574 252.356 273.567 216.443 264.462 181.433C256.815 151.908 230.362 132.264 201.427 132.264C196.022 132.264 190.52 132.988 185.043 134.433Z" fill="url(#paint16_radial_127_2)"/>
<path d="M237.731 338.585C189.105 351.42 159.862 401.492 172.529 450.543C185.151 499.591 234.882 529.056 283.527 516.283C332.352 503.568 361.482 453.435 348.774 404.324C338.198 363.049 301.231 335.632 260.673 335.632C253.103 335.632 245.403 336.595 237.731 338.585Z" fill="url(#paint17_radial_127_2)"/>
<path d="M189.653 201.017L242.385 405.349L265.927 399.202L213.117 194.872L189.653 201.017Z" fill="url(#paint18_radial_127_2)"/>
<path d="M62.0752 466.75L68.2405 490.493L270.946 437.405L264.861 413.665L62.0752 466.75Z" fill="url(#paint19_radial_127_2)"/>
<path d="M518.337 314.601C533.98 310.053 549.876 312.331 563.012 319.712C576.25 327.051 586.644 339.416 591.145 355.125C595.634 370.864 593.4 386.971 586.06 400.245C578.81 413.513 566.585 423.968 550.924 428.512C535.317 433.061 519.356 430.777 506.196 423.444C493.084 416.111 482.586 403.692 478.097 387.96C473.62 372.268 475.934 356.185 483.165 342.917C490.402 329.612 502.73 319.128 518.337 314.601ZM545.784 420.42L540.512 402.004C535.468 403.795 530.774 406.248 526.73 409.351C526.08 409.723 525.502 410.207 524.948 410.701C525.61 411.376 526.28 412.068 526.905 412.719C531.274 417.1 535.86 420.124 540.356 421.372C542.126 421.16 543.958 420.848 545.784 420.42ZM558.678 327.641C558.185 327.335 557.702 327.117 557.178 326.943C555.552 329.093 553.72 331.125 551.798 333.052C557.209 340.253 561.873 349.443 565.126 359.819L581.625 355.035C577.48 342.989 569.097 333.468 558.678 327.641ZM552.129 324.549C548.453 323.207 544.621 322.267 540.753 321.803C542.621 323.153 544.452 324.84 546.2 326.527C546.977 327.335 547.646 328.051 548.328 328.816C549.689 327.557 550.936 326.051 552.129 324.549ZM528.906 321.737C527.105 321.965 525.26 322.303 523.496 322.688L528.78 341.115C533.829 339.435 538.457 336.897 542.578 333.805C543.145 333.396 543.729 332.889 544.272 332.463C543.633 331.74 543.006 331.113 542.362 330.443C538.048 326.051 533.384 322.965 528.906 321.737ZM518.234 324.201C516.488 324.84 514.776 325.533 513.185 326.316C510.021 329.751 507.75 334.867 506.358 340.928C506.177 341.82 505.96 342.676 505.754 343.652C506.478 343.712 507.232 343.839 508.009 343.851C513.029 344.279 518.337 343.935 523.537 342.628L518.234 324.201ZM503.17 332.715C500.09 335.204 497.41 338.036 495 341.157C496.868 341.755 498.657 342.387 500.47 342.724C500.657 341.7 500.82 340.736 501.08 339.627C501.664 337.252 502.326 334.849 503.17 332.715ZM491.932 345.881C491.68 346.296 491.312 346.755 491.082 347.268C485.352 357.807 483.309 370.328 486.16 382.771L502.598 377.968C499.934 367.435 499.013 357.161 499.802 348.171C497.085 347.587 494.476 346.816 491.932 345.881ZM487.654 388.049C491.836 400.137 500.194 409.7 510.63 415.503L512.082 416.316C513.709 414.063 515.529 412.007 517.512 410.037C512.064 402.848 507.437 393.623 504.092 383.271L487.654 388.049ZM517.138 418.563C520.849 419.92 524.604 420.86 528.538 421.372C526.653 419.937 524.874 418.352 523.061 416.491C522.308 415.84 521.669 415.129 520.934 414.316C519.614 415.659 518.421 417.033 517.138 418.563ZM551.032 418.877C552.708 418.305 554.454 417.576 556.106 416.804C559.221 413.352 561.553 408.308 562.909 402.288C563.114 401.355 563.282 400.439 563.452 399.523C562.765 399.383 562 399.293 561.325 399.293C556.197 398.86 550.978 399.293 545.76 400.475L551.032 418.877ZM566.121 410.459C569.121 407.94 571.876 405.097 574.256 401.963C572.466 401.341 570.67 400.848 568.796 400.415C568.628 401.468 568.441 402.451 568.176 403.397C567.633 405.945 566.952 408.236 566.121 410.459ZM577.329 397.372L578.202 395.871C583.95 385.368 585.981 372.787 583.138 360.313L566.657 365.104C569.362 375.625 570.273 385.928 569.496 394.925C572.158 395.581 574.785 396.329 577.329 397.372ZM547.718 336.651C547.08 337.24 546.41 337.735 545.76 338.236C541.174 341.652 535.926 344.501 530.286 346.431L536.498 368.14L559.957 361.308C556.841 351.78 552.586 343.315 547.718 336.651ZM525.032 347.943C519.21 349.347 513.33 349.732 507.6 349.316C506.785 349.249 506.008 349.172 505.165 349.02C504.52 357.276 505.352 366.743 507.792 376.468L531.256 369.653L525.032 347.943ZM539.024 396.811L532.75 374.949L509.31 381.752C512.377 391.316 516.673 399.727 521.573 406.423C522.254 405.935 522.857 405.451 523.513 404.945C528.141 401.511 533.317 398.703 539.024 396.811ZM544.253 395.304C550.038 393.845 555.961 393.443 561.662 393.852C562.5 393.931 563.325 393.991 564.085 394.075C564.729 385.76 563.885 376.348 561.481 366.616L538.01 373.419L544.253 395.304Z" fill="white"/>
<path d="M483.051 702.218C479.863 703.074 476.935 704.966 474.897 707.81L471.12 705.556C470.42 705.183 469.583 705.399 469.204 706.062L457.116 726.808C456.736 727.524 456.935 728.382 457.628 728.774C458.297 729.159 459.147 728.93 459.556 728.255L470.903 708.732L473.421 710.239L453.188 744.995C451.56 747.844 450.976 751.002 451.313 754.051C451.584 756.551 452.464 758.992 454 761.078L453.375 762.088L453.399 762.114L453.375 762.126C452.005 764.542 452.421 766.879 453.712 768.596C456.181 771.784 461.249 771.935 463.515 768.103L464.1 767.036C466.636 767.35 469.204 766.952 471.517 765.987C474.283 764.79 476.736 762.698 478.375 759.914L499.327 723.886C501.356 720.403 501.821 716.378 500.868 712.714C498.827 704.856 490.829 700.175 483.051 702.218ZM469.667 761.607C467.727 762.426 465.528 762.636 463.461 762.136C462.383 761.848 461.292 762.408 460.804 763.336L459.441 765.692C458.652 766.994 456.676 765.819 457.441 764.518L458.863 762.088C459.441 761.107 459.219 759.914 458.465 759.136C457.044 757.564 456.181 755.576 455.959 753.508C455.801 751.894 456.001 750.254 456.645 748.706L473.529 758.679C472.481 759.986 471.12 761.004 469.667 761.607ZM475.036 756.274L458.008 746.17L470.903 723.97L487.943 734.046L475.036 756.274ZM489.377 731.611L472.312 721.5L474.753 717.343L491.817 727.399L489.377 731.611ZM495.283 721.459L493.252 724.928L476.175 714.871L478.2 711.455L478.253 711.275C479.633 709.026 481.828 707.43 484.244 706.803C489.535 705.399 494.909 708.586 496.301 713.908C496.94 716.403 496.657 719.138 495.283 721.459Z" fill="white"/>
<path d="M593.508 188.484L577.745 192.629C576.853 192.871 576.298 193.847 576.516 194.775C576.781 195.727 577.721 196.293 578.618 196.04L594.388 191.901C595.34 191.648 595.924 190.689 595.689 189.725C595.43 188.827 594.46 188.231 593.508 188.484ZM595.086 194.583L579.324 198.723C578.425 198.951 577.865 199.952 578.112 200.885C578.36 201.813 579.305 202.355 580.202 202.108L595.966 197.969C596.918 197.716 597.509 196.763 597.256 195.847C597.014 194.901 596.033 194.323 595.086 194.583ZM598.238 206.741L582.486 210.888C581.584 211.128 581.01 212.093 581.264 213.027C581.505 213.949 582.457 214.497 583.354 214.249L599.112 210.111C600.064 209.864 600.642 208.929 600.408 207.989C600.16 207.043 599.184 206.477 598.238 206.741ZM596.66 200.651L580.908 204.801C579.986 205.031 579.462 206.024 579.678 206.928C579.932 207.863 580.878 208.448 581.764 208.201L597.538 204.067C598.504 203.801 599.069 202.825 598.846 201.909C598.6 200.969 597.612 200.397 596.66 200.651ZM591.953 182.428L576.184 186.58C575.28 186.827 574.713 187.731 574.954 188.683C575.184 189.635 576.142 190.201 577.052 189.948L592.809 185.809C593.78 185.556 594.333 184.592 594.092 183.652C593.852 182.712 592.898 182.181 591.953 182.428ZM623.004 206.7L607.301 210.845C606.33 211.099 605.77 212.033 606 212.973C606.253 213.931 607.186 214.491 608.169 214.244L623.901 210.097C624.86 209.845 625.384 208.9 625.13 207.948C624.896 207.008 623.98 206.453 623.004 206.7ZM622.04 158.693C620.677 157.861 618.888 158.325 618.105 159.729L616.11 163.097L612.977 161.289C612.32 160.772 611.482 160.531 610.602 160.765L610.38 160.815L610.404 160.904C609.681 161.007 609.054 161.549 608.609 162.212L606.686 165.58L603.582 163.755C602.872 163.261 602.016 163.019 601.154 163.243L600.932 163.316L600.956 163.399C600.245 163.58 599.6 164.025 599.226 164.683L597.226 168.064L594.117 166.243C593.448 165.743 592.556 165.508 591.725 165.732L591.525 165.785L591.549 165.857C590.796 165.972 590.188 166.52 589.754 167.177L587.784 170.545L584.668 168.737C583.993 168.232 583.125 167.997 582.257 168.232L582.06 168.292L582.077 168.352C581.354 168.46 580.728 169.003 580.329 169.665L578.401 173.023L575.238 171.208C574.502 170.713 573.689 170.467 572.84 170.696L572.665 170.751L572.682 170.823C571.912 171.033 571.309 171.48 570.881 172.149L568.934 175.511L565.832 173.691C565.133 173.179 564.229 172.973 563.349 173.204C561.849 173.589 560.909 175.233 561.33 176.8L564.409 188.725L556.13 193.847C554.738 194.66 554.298 196.48 555.16 197.843L575.618 231.544C576.214 232.652 577.594 233.261 578.836 232.941L635.32 218.076C636.881 217.66 637.826 216.136 637.405 214.515L623.389 160.477C623.214 159.753 622.732 159.072 622.04 158.693ZM570.357 211.732L561.632 197.312L565.934 194.612L570.357 211.732ZM631.048 213.201L580.228 226.579L568.7 182.127C570.056 182.801 571.718 182.289 572.466 180.983L572.454 180.964L572.484 180.923L574.461 177.499L577.932 179.524C579.305 180.355 581.07 179.903 581.902 178.507L581.932 178.463L581.914 178.421L583.909 175.005L587.38 177.041C588.754 177.885 590.549 177.403 591.326 176.029L593.34 172.528L596.828 174.553C598.196 175.396 600.004 174.92 600.726 173.54L602.812 170.027L606.288 172.059C607.65 172.908 609.41 172.451 610.234 171.045L612.278 167.533L615.682 169.581C617.002 170.389 618.66 170.015 619.55 168.737L631.048 213.201ZM615.134 176.324L599.406 180.469C598.473 180.711 597.906 181.645 598.136 182.597L602.872 200.843C603.118 201.771 604.053 202.355 605.029 202.096L620.738 197.963C621.702 197.704 622.226 196.752 621.997 195.817L617.244 177.567C617.002 176.625 616.098 176.071 615.134 176.324ZM601.95 183.404L614.333 180.139L618.208 195.028L605.806 198.276L601.95 183.404ZM621.454 200.639L605.71 204.765C604.758 205.031 604.204 205.988 604.432 206.928C604.698 207.863 605.649 208.393 606.601 208.152L622.317 204.012C623.262 203.76 623.786 202.825 623.558 201.909C623.329 200.957 622.396 200.379 621.454 200.639ZM599.798 212.811L584.036 216.961C583.138 217.184 582.584 218.143 582.824 219.059C583.065 220.029 584.029 220.595 584.926 220.343L600.685 216.208C601.637 215.967 602.233 214.997 601.974 214.027C601.752 213.105 600.774 212.557 599.798 212.811Z" fill="white"/>
<path d="M719.976 282.906C730.092 280.231 740.252 281.967 748.549 286.888L748.82 286.974C757.028 291.958 763.433 300.014 766.03 310.076C767.066 314.078 767.428 318.06 767.193 321.983C767.006 325.671 766.21 329.292 764.976 332.708L768.356 345.803C768.778 347.382 767.844 348.935 766.277 349.346L739.041 356.504C728.953 359.174 718.753 357.504 710.454 352.515L710.418 352.527C702.09 347.628 695.577 339.482 692.95 329.316C690.341 319.158 692.07 308.895 696.95 300.484L696.921 300.466C701.813 292.078 709.858 285.546 719.976 282.906ZM709.352 317.132L745.753 307.558C746.729 307.311 747.302 306.376 747.066 305.406C746.82 304.46 745.856 303.936 744.916 304.19L708.497 313.776C707.562 314.016 707.008 314.922 707.268 315.879C707.52 316.843 708.442 317.368 709.352 317.132ZM711.702 326.176L748.128 316.591C749.073 316.355 749.628 315.398 749.398 314.487C749.145 313.535 748.194 312.975 747.253 313.222L710.829 322.803C709.913 323.043 709.376 324.014 709.624 324.942C709.846 325.87 710.798 326.424 711.702 326.176ZM714.07 335.27L750.477 325.683C751.429 325.424 751.99 324.478 751.737 323.556C751.526 322.64 750.55 322.055 749.597 322.315L713.178 331.902C712.256 332.124 711.732 333.112 711.973 334.04C712.202 334.944 713.136 335.511 714.07 335.27ZM745.65 291.922C738.613 287.782 729.948 286.299 721.421 288.54C712.925 290.782 706.068 296.344 701.946 303.418H701.917C697.801 310.522 696.366 319.223 698.596 327.823C700.825 336.463 706.297 343.32 713.365 347.519C720.397 351.654 729.068 353.13 737.594 350.895L761.998 344.476L759.106 333.282C758.974 332.746 758.992 332.095 759.269 331.462C760.462 328.388 761.204 325.008 761.402 321.622C761.601 318.367 761.3 314.958 760.432 311.552C758.197 303.008 752.785 296.194 745.837 292.054L745.65 291.922Z" fill="white"/>
<path d="M342.887 89.7829L317.096 80.0335C316.157 79.6962 315.56 78.9549 315.373 78.0882V78.0749L312.583 78.7135L321.109 92.2962C321.929 93.5615 321.549 95.2549 320.296 96.0922L315.68 99.0269L311.071 101.931C309.811 102.751 308.112 102.395 307.293 101.075L295.5 82.3295C292.608 82.2815 289.927 81.3589 287.631 79.7922C284.937 77.8455 282.895 75.0029 282.081 71.5429C281.22 67.7949 281.955 64.0109 283.859 60.9802L283.829 60.9682L283.925 60.9069C285.757 57.9189 288.764 55.5922 292.44 54.7189L309.033 50.8202C308.824 49.8202 309.179 48.8029 309.829 48.1455L328.715 27.9349C329.78 26.8442 331.492 26.7482 332.612 27.8149C333.023 28.1829 333.257 28.6455 333.365 29.1522L337.608 47.4709C339.543 47.4882 341.441 48.0962 343.031 49.0736L343.169 49.1335C345.537 50.6575 347.4 53.0562 348.099 56.0215C348.773 58.9549 348.177 61.9749 346.701 64.3962C345.695 66.0655 344.219 67.3975 342.447 68.3429L346.701 86.6735C347.044 88.1495 346.135 89.5962 344.635 89.9575C344.049 90.0842 343.411 90.0295 342.887 89.7829ZM316.259 72.1815L312.469 55.7495L293.711 60.1482C291.469 60.6842 289.632 62.0709 288.48 63.8842C287.401 65.7535 286.932 68.0055 287.444 70.2895C287.951 72.4109 289.18 74.1402 290.788 75.2735C292.427 76.4122 294.512 76.9602 296.621 76.7549C297.633 76.6282 298.664 77.0682 299.26 78.0215L310.456 95.8029L312.764 94.3749L314.999 92.9042L305.943 78.5629C305.756 78.2682 305.587 77.9482 305.503 77.5575C305.165 76.0682 306.088 74.5735 307.576 74.2255L316.259 72.1815ZM315.036 52.3215L320.399 75.3989L340.181 82.8949L329.208 35.4376L314.728 51.0015L315.036 52.3215ZM338.391 50.8575L341.664 64.9455C342.585 64.3789 343.327 63.5229 343.857 62.6442C344.941 60.9442 345.339 58.8776 344.857 56.7855C344.363 54.6656 343.104 53.0029 341.399 51.9362L341.356 51.8869C340.452 51.3815 339.464 50.9655 338.391 50.8575Z" fill="white"/>
<path d="M626.48 620.045C626.848 621.534 625.956 623.034 624.552 623.397C623.088 623.787 621.575 622.897 621.203 621.45C620.37 618.267 618.484 616.231 616.31 614.983C612.832 613.062 608.608 612.85 606.283 613.279C604.336 613.605 602.408 613.261 600.83 612.339H600.775C599.227 611.393 597.991 609.886 597.484 607.915L597.202 606.807C596.943 605.813 597.256 604.77 598.008 604.126C599.4 602.481 599.738 599.871 600.034 597.774C600.28 595.81 600.486 594.129 601.383 592.779L601.402 592.706L601.474 592.557C602.004 591.766 602.552 590.381 602.727 589.062C602.806 587.97 602.643 586.922 601.835 586.422L601.751 586.319H601.708C600.95 585.771 600.378 584.499 600.443 583.523C600.504 581.685 600.504 580.011 600.304 578.486C600.082 576.998 599.756 575.613 599.28 574.461H599.227C598.599 572.918 596.678 570.461 594.472 568.929C593.303 568.098 592.122 567.61 591.344 567.983C590.459 568.321 589.524 568.447 588.627 568.279C587.735 568.117 586.874 567.694 586.163 567.002C585.608 566.543 584.499 566.435 583.264 566.543C581.662 566.645 579.908 567.146 578.6 567.483C575.479 568.375 572.954 569.737 571.224 571.726C569.688 573.473 568.755 575.822 568.543 578.734C568.38 581.022 568.574 583.494 569.194 585.669C569.784 587.807 570.652 589.694 571.803 591.158L572.303 592.129C572.466 592.846 572.399 593.574 572.063 594.195L572.087 594.238L572.044 594.346C571.676 595.159 572.02 596.123 572.587 596.979V596.918C573.394 598.07 574.654 599.034 575.45 599.474L575.46 599.457L575.762 599.642C577.112 600.395 578.034 601.727 579.179 603.258C580.504 605.054 582.131 607.277 584.307 607.891C585.264 608.186 585.987 608.941 586.204 609.802L586.476 610.833C586.982 612.814 586.644 614.725 585.699 616.315C584.771 617.913 583.264 619.141 581.426 619.835C579.112 620.63 575.594 622.865 573.532 626.234C572.176 628.415 571.508 631.127 572.334 634.291C572.714 635.766 571.834 637.286 570.358 637.665C568.911 638.045 567.447 637.146 567.067 635.67C565.832 630.867 566.856 626.729 568.88 623.378C571.688 618.755 576.534 615.731 579.607 614.617C580.227 614.411 580.727 614.002 581.01 613.538L581.228 612.585C578.232 611.187 576.359 608.633 574.828 606.53C574.087 605.487 573.448 604.638 573.128 604.409L573.038 604.378V604.354C569.296 602.407 565.434 597.931 566.67 593.357C565.476 591.483 564.566 589.374 563.976 587.133C563.211 584.306 562.891 581.229 563.12 578.353C563.391 574.135 564.826 570.774 567.206 568.117C569.634 565.326 573.038 563.441 577.112 562.265C578.619 561.825 580.746 561.283 582.842 561.073C585.264 560.946 587.735 561.258 589.548 562.79C592.279 561.783 595.111 562.73 597.587 564.475C598.714 565.285 599.852 566.291 600.859 567.375C602.45 566.585 604.408 566.206 606.367 566.037L606.578 566.018C609.44 565.91 612.435 566.459 614.026 567.61C616.351 566.917 618.774 567.694 620.798 569.153C623.347 570.918 625.655 573.925 626.492 575.822C627.42 577.993 627.463 579.938 627.506 581.77C627.535 582.631 627.559 583.494 627.703 584.205C629.487 585.845 629.958 588.127 629.728 590.297C629.506 592.213 628.818 593.882 627.908 595.515C627.578 596.039 627.559 597.063 627.463 597.606C627.228 599.715 626.939 602.126 625.516 604.366L625.854 604.77C626.04 604.909 626.372 604.909 626.867 604.879C629.59 604.378 634.428 604.607 638.399 606.831C641.28 608.463 643.786 611.151 644.835 615.231C645.208 616.695 644.328 618.189 642.895 618.57C641.46 618.943 639.954 618.07 639.574 616.611C638.935 614.139 637.447 612.569 635.718 611.591C633.024 610.097 629.675 609.953 627.8 610.218V610.241C625.71 610.615 624.016 610.139 622.648 609.109C621.22 608.083 620.256 606.403 619.786 604.566C619.544 603.602 619.87 602.619 620.539 601.933C621.618 600.709 621.883 598.661 622.124 596.955C622.292 595.286 622.462 593.839 623.263 592.623L623.287 592.579L623.347 592.483C623.744 591.887 624.184 590.797 624.323 589.731C624.383 589.043 624.282 588.405 623.787 588.049C623.232 587.675 622.89 587.193 622.691 586.549C622.203 584.958 622.1 583.469 622.1 581.926C622.058 580.619 621.998 579.197 621.515 578.041C620.96 576.781 619.454 574.847 617.726 573.641C616.888 573.039 616.08 572.701 615.598 572.877C614.803 573.201 613.923 573.329 613.086 573.141L612.904 573.118C612.151 572.918 611.44 572.593 610.88 572.051L610.85 572.038C610.319 571.629 608.68 571.401 606.819 571.471L606.632 571.485C605.71 571.557 604.776 571.695 604.035 571.937L604.252 572.293L604.198 572.309C604.932 574.021 605.391 575.822 605.655 577.769C605.855 579.289 605.956 580.945 605.896 582.691C609.427 586.049 608.338 591.802 606.047 595.515L605.999 595.629L605.956 595.683L605.872 595.743C605.728 596.058 605.566 597.147 605.403 598.491C605.071 601.046 604.715 604.083 602.787 606.746C602.986 607.121 603.203 607.391 603.528 607.561L603.559 607.645C604.052 607.861 604.686 607.994 605.307 607.855C608.536 607.319 614.212 607.583 618.888 610.218C622.335 612.139 625.234 615.249 626.48 620.045Z" fill="white"/>
<path d="M311.48 227.892L405.126 203.254C407.307 202.68 409.495 203.964 410.062 206.146L431.416 288.614C431.982 290.752 430.704 292.982 428.536 293.555L334.891 318.195C332.746 318.76 330.552 317.422 330.004 315.278L324.315 293.344C323.978 292.036 324.755 290.735 326.08 290.379L344.634 285.504C345.887 285.174 347.212 285.914 347.556 287.222L348.991 292.826L359.59 274.652L341.543 264.004L342.988 269.615C343.339 270.892 342.531 272.212 341.259 272.531L322.712 277.412C321.399 277.768 320.079 276.99 319.759 275.731L308.63 232.834C308.076 230.659 309.347 228.452 311.48 227.892ZM332.746 293.675L336.776 309.288L422.535 286.734L408.632 233.106L322.899 255.671L326.943 271.314L337.734 268.47L335.427 259.552C335.083 258.244 335.855 256.924 337.144 256.599C337.795 256.406 338.476 256.539 338.976 256.888L339.042 256.87L364.151 271.694C365.259 272.356 365.658 273.838 365.031 275.074L350.256 300.388C349.599 301.472 348.099 301.858 346.93 301.262C346.363 300.882 346.002 300.364 345.827 299.714L343.526 290.843L332.746 293.675ZM402.342 244.234C403.638 243.896 404.958 244.68 405.295 245.988C405.65 247.332 404.855 248.61 403.566 248.952L370.454 257.666C369.111 258.008 367.81 257.286 367.471 255.943C367.11 254.628 367.887 253.298 369.231 252.948L402.342 244.234ZM401.071 277.864C402.36 277.515 403.68 278.274 404.006 279.551C404.331 280.859 403.566 282.202 402.276 282.546L378.51 288.8C377.191 289.15 375.859 288.36 375.522 287.047C375.178 285.763 375.974 284.462 377.294 284.107L401.071 277.864ZM405.036 254.642C406.331 254.291 407.651 255.015 407.994 256.346C408.332 257.666 407.555 258.998 406.259 259.34L373.135 268.054C371.804 268.41 370.496 267.615 370.152 266.312C369.803 264.97 370.58 263.691 371.919 263.342L405.036 254.642ZM407.723 265.023C409.012 264.686 410.332 265.47 410.675 266.788C411.012 268.096 410.23 269.374 408.928 269.706L375.816 278.424C374.498 278.78 373.178 278.051 372.852 276.743C372.508 275.43 373.28 274.098 374.623 273.736L407.723 265.023ZM398.215 217.95C400.378 217.39 402.53 218.668 403.083 220.855C403.662 223.012 402.426 225.254 400.258 225.819C398.088 226.38 395.876 225.072 395.311 222.891C394.756 220.716 396.058 218.528 398.215 217.95ZM388.7 220.463C390.803 219.903 393.02 221.168 393.58 223.355C394.135 225.519 392.827 227.772 390.724 228.32C388.574 228.88 386.343 227.567 385.778 225.404C385.199 223.218 386.555 221.042 388.7 220.463ZM379.09 222.982C381.294 222.415 383.446 223.68 384.012 225.874C384.572 228.031 383.319 230.267 381.126 230.846C379.004 231.406 376.782 230.092 376.215 227.922C375.643 225.747 376.962 223.536 379.09 222.982ZM321.675 250.971L407.422 228.399L403.21 212.118L317.452 234.678L321.675 250.971Z" fill="white"/>
<path d="M471.891 512.787L471.933 513.017L471.891 513.1L471.849 513.245L465.931 569.537L477.001 578.715C478.279 579.823 478.477 581.776 477.453 583.059C476.362 584.409 474.374 584.601 473.109 583.512L461.961 574.359L409.145 588.265L403.921 601.704C403.301 603.3 401.535 604.132 399.926 603.456C398.402 602.829 397.553 601.064 398.191 599.456L403.427 585.993L403.403 585.921L371.207 539.601L371.183 539.531L359.657 538.783C357.957 538.661 356.679 537.203 356.763 535.559C356.849 533.812 358.337 532.539 360.011 532.564L371.502 533.299L371.659 533.148L408.006 487.497L408.079 487.491L405.343 476.983C404.927 475.308 405.898 473.537 407.537 473.12C409.145 472.711 410.935 473.717 411.381 475.392L414.081 485.901L468.571 507.624L477.809 501.556C479.338 500.7 481.213 501.092 482.159 502.587C483.045 503.965 482.647 505.852 481.213 506.804L471.891 512.787ZM420.678 536.185L411.309 499.953L384.114 533.992L420.678 536.185ZM417.298 498.32L426.723 534.593L457.875 514.504L417.298 498.32ZM460.815 519.981L430.025 539.824L456.418 561.673L460.815 519.981ZM452.211 566.217L426.078 544.717L413.773 576.335L452.211 566.217ZM407.91 574.4L420.335 542.361L384.229 540.283L407.91 574.4Z" fill="white"/>
<path d="M729.719 748.055H714.311V745.019H748.405V748.055H733.009V789.223H729.719V748.055Z" fill="white"/>
<path d="M746.959 773.194V773.068C746.959 763.722 753.539 756.269 762.252 756.269C771.26 756.269 777.003 763.578 777.003 773.134C777.003 773.701 777.003 773.889 776.948 774.389H750.236C750.827 782.402 756.564 787.072 762.872 787.072C767.856 787.072 771.26 784.88 773.924 782.029L776.056 783.921C772.791 787.464 768.933 789.996 762.759 789.996C754.28 789.996 746.959 783.233 746.959 773.194ZM773.683 771.612C773.231 765.114 769.495 759.096 762.125 759.096C755.749 759.096 750.827 764.482 750.236 771.612H773.683Z" fill="white"/>
<path d="M783.848 773.254V773.127C783.848 764.09 791.043 756.262 800.273 756.262C806.336 756.262 810.12 759.027 813.132 762.198L810.945 764.475C808.149 761.625 805.004 759.178 800.208 759.178C792.856 759.178 787.209 765.289 787.209 772.997V773.127C787.209 780.883 793.055 787.071 800.449 787.071C805.004 787.071 808.547 784.739 811.247 781.709L813.404 783.607C810.12 787.338 806.204 789.994 800.273 789.994C790.988 789.994 783.848 782.275 783.848 773.254Z" fill="white"/>
<path d="M822.124 757.021H825.221V763.011C827.372 759.227 830.976 756.263 836.832 756.263C844.98 756.263 849.733 761.819 849.733 769.532V789.223H846.624V770.092C846.624 763.464 842.906 759.096 836.398 759.096C830.084 759.096 825.221 763.909 825.221 770.609V789.223H822.124V757.021Z" fill="white"/>
<path d="M858.651 773.254V773.127C858.651 764.09 865.659 756.262 875.259 756.262C884.796 756.262 891.751 763.957 891.751 772.997V773.127C891.751 782.149 884.712 789.994 875.126 789.994C865.599 789.994 858.651 782.275 858.651 773.254ZM888.388 773.254V773.127C888.388 765.361 882.574 759.178 875.126 759.178C867.491 759.178 862.008 765.421 862.008 772.997V773.127C862.008 780.883 867.804 787.071 875.259 787.071C882.899 787.071 888.388 780.817 888.388 773.254Z" fill="white"/>
<path d="M901.711 789.223H904.826V743.127H901.711V789.223Z" fill="white"/>
<path d="M914.817 773.254V773.127C914.817 764.09 921.806 756.262 931.412 756.262C940.95 756.262 947.886 763.957 947.886 772.997V773.127C947.886 782.149 940.89 789.994 931.285 789.994C921.753 789.994 914.817 782.275 914.817 773.254ZM944.53 773.254V773.127C944.53 765.361 938.733 759.178 931.285 759.178C923.645 759.178 918.149 765.421 918.149 772.997V773.127C918.149 780.883 923.97 787.071 931.412 787.071C939.065 787.071 944.53 780.817 944.53 773.254Z" fill="white"/>
<path d="M956.822 794.525L958.635 792.006C962.486 794.966 966.909 796.552 971.663 796.552C979.05 796.552 984.287 792.321 984.287 784.048V779.377C981.51 783.354 977.207 786.82 970.838 786.82C963.053 786.82 955.358 780.884 955.358 771.682V771.538C955.358 762.265 963.053 756.269 970.838 756.269C977.279 756.269 981.635 759.685 984.287 763.464V757.021H987.378V784.234C987.378 788.91 985.859 792.573 983.281 795.17C980.485 797.937 976.327 799.442 971.579 799.442C966.229 799.442 961.233 797.797 956.822 794.525ZM984.474 771.609V771.49C984.474 764.024 977.834 759.233 971.139 759.233C964.397 759.233 958.709 763.909 958.709 771.424V771.538C958.709 778.798 964.511 783.861 971.139 783.861C977.834 783.861 984.474 778.938 984.474 771.609Z" fill="white"/>
<path d="M999.195 748.621H1003.05V744.385H999.195V748.621ZM999.575 789.223H1002.68V757.021H999.575V789.223Z" fill="white"/>
<path d="M1012.65 773.194V773.068C1012.65 763.722 1019.23 756.269 1027.93 756.269C1036.96 756.269 1042.72 763.578 1042.72 773.134C1042.72 773.701 1042.72 773.889 1042.65 774.389H1015.94C1016.51 782.402 1022.26 787.072 1028.58 787.072C1033.57 787.072 1036.96 784.88 1039.62 782.029L1041.77 783.921C1038.48 787.464 1034.64 789.996 1028.44 789.996C1019.98 789.996 1012.65 783.233 1012.65 773.194ZM1039.37 771.612C1038.91 765.114 1035.21 759.096 1027.8 759.096C1021.45 759.096 1016.51 764.482 1015.94 771.612H1039.37Z" fill="white"/>
<path d="M1068.62 773.254V773.127C1068.62 762.631 1076.52 756.262 1084.29 756.262C1090.73 756.262 1094.89 759.914 1097.57 763.957V743.119H1100.65V789.223H1097.57V782.022C1094.77 786.246 1090.68 789.994 1084.29 789.994C1076.52 789.994 1068.62 783.745 1068.62 773.254ZM1097.73 773.194V773.067C1097.73 764.789 1091.32 759.226 1084.62 759.226C1077.59 759.226 1071.96 764.331 1071.96 772.997V773.127C1071.96 781.582 1077.84 787.017 1084.62 787.017C1091.32 787.017 1097.73 781.383 1097.73 773.194Z" fill="white"/>
<path d="M1110.19 773.194V773.068C1110.19 763.722 1116.76 756.269 1125.47 756.269C1134.5 756.269 1140.25 763.578 1140.25 773.134C1140.25 773.701 1140.25 773.889 1140.17 774.389H1113.48C1114.04 782.402 1119.78 787.072 1126.12 787.072C1131.1 787.072 1134.5 784.88 1137.15 782.029L1139.27 783.921C1136.01 787.464 1132.18 789.996 1125.98 789.996C1117.5 789.996 1110.19 783.233 1110.19 773.194ZM1136.9 771.612C1136.47 765.114 1132.73 759.096 1125.36 759.096C1118.97 759.096 1114.04 764.482 1113.48 771.612H1136.9Z" fill="white"/>
<path d="M1149.73 789.223H1152.84V743.127H1149.73V789.223Z" fill="white"/>
<path d="M1165.47 789.223H1168.58V743.127H1165.47V789.223Z" fill="white"/>
<path d="M1178.54 755.576C1181.26 754.172 1182.27 752.785 1182.09 750.4H1180.39V745.012H1184.56V749.689C1184.56 753.605 1183.08 755.703 1179.3 757.143L1178.54 755.576Z" fill="white"/>
<path d="M1196.41 789.223H1199.71V745.012H1196.41V789.223Z" fill="white"/>
<path d="M1212.6 757.021H1215.68V763.011C1217.83 759.227 1221.42 756.263 1227.32 756.263C1235.45 756.263 1240.18 761.819 1240.18 769.532V789.223H1237.09V770.092C1237.09 763.464 1233.38 759.096 1226.86 759.096C1220.55 759.096 1215.68 763.909 1215.68 770.609V789.223H1212.6V757.021Z" fill="white"/>
<path d="M1253.22 759.848H1248.53V757.016H1253.22V753.852C1253.22 750.201 1254.22 747.284 1256.05 745.459C1257.69 743.82 1259.97 742.928 1262.82 742.928C1264.77 742.928 1266.17 743.193 1267.6 743.693V746.603C1265.77 746.037 1264.46 745.771 1262.82 745.771C1258.39 745.771 1256.3 748.429 1256.3 753.919V757.016H1267.54V759.848H1256.3V789.217H1253.22V759.848Z" fill="white"/>
<path d="M1271.35 773.254V773.127C1271.35 764.09 1278.34 756.262 1287.95 756.262C1297.5 756.262 1304.43 763.957 1304.43 772.997V773.127C1304.43 782.149 1297.43 789.994 1287.84 789.994C1278.29 789.994 1271.35 782.275 1271.35 773.254ZM1301.08 773.254V773.127C1301.08 765.361 1295.29 759.178 1287.84 759.178C1280.2 759.178 1274.7 765.421 1274.7 772.997V773.127C1274.7 780.883 1280.52 787.071 1287.95 787.071C1295.58 787.071 1301.08 780.817 1301.08 773.254Z" fill="white"/>
<path d="M1314 757.021H1317.08V766.175C1319.6 760.433 1324.97 756.263 1331.34 756.509V759.915H1331.03C1323.57 759.915 1317.08 765.536 1317.08 776.021V789.223H1314V757.021Z" fill="white"/>
<path d="M1339.25 757.021H1342.34V762.771C1344.43 759.433 1347.35 756.263 1353.08 756.263C1358.69 756.263 1362.17 759.475 1363.95 763.204C1366 759.625 1369.49 756.263 1375.57 756.263C1383.2 756.263 1387.94 761.632 1387.94 769.717V789.223H1384.84V770.092C1384.84 763.139 1381.24 759.096 1375.31 759.096C1369.87 759.096 1365.12 763.276 1365.12 770.465V789.223H1362.05V769.904C1362.05 763.204 1358.4 759.096 1352.64 759.096C1346.9 759.096 1342.34 764.157 1342.34 770.664V789.223H1339.25V757.021Z" fill="white"/>
<path d="M1396.69 779.877V779.75C1396.69 773.069 1402.42 769.285 1410.76 769.285C1415.23 769.285 1418.33 769.845 1421.43 770.663V769.285C1421.43 762.77 1417.45 759.433 1410.81 759.433C1406.92 759.433 1403.69 760.499 1400.71 762.006L1399.59 759.282C1403.1 757.649 1406.59 756.51 1410.99 756.51C1415.37 756.51 1418.84 757.715 1421.17 760.059C1423.32 762.198 1424.47 765.175 1424.47 769.126V789.223H1421.43V783.859C1419.22 786.946 1415.23 789.994 1409.12 789.994C1403.1 789.994 1396.69 786.583 1396.69 779.877ZM1421.48 777.154V773.509C1418.78 772.809 1415.19 772.069 1410.58 772.069C1403.75 772.069 1399.97 775.081 1399.97 779.565V779.69C1399.97 784.359 1404.38 787.071 1409.31 787.071C1415.87 787.071 1421.48 783.041 1421.48 777.154Z" fill="white"/>
<path d="M1433.38 787.464L1456.62 759.812H1434.27V757.023H1461.22V758.793L1438 786.457H1461.22V789.223H1433.38V787.464Z" fill="white"/>
<path d="M1470.65 748.621H1474.5V744.385H1470.65V748.621ZM1471.03 789.223H1474.1V757.021H1471.03V789.223Z" fill="white"/>
<path d="M1484.11 773.254V773.127C1484.11 764.09 1491.1 756.262 1500.71 756.262C1510.25 756.262 1517.19 763.957 1517.19 772.997V773.127C1517.19 782.149 1510.19 789.994 1500.59 789.994C1491.06 789.994 1484.11 782.275 1484.11 773.254ZM1513.84 773.254V773.127C1513.84 765.361 1508.03 759.178 1500.59 759.178C1492.95 759.178 1487.45 765.421 1487.45 772.997V773.127C1487.45 780.883 1493.25 787.071 1500.71 787.071C1508.34 787.071 1513.84 780.817 1513.84 773.254Z" fill="white"/>
<path d="M1526.74 757.021H1529.84V763.011C1531.98 759.227 1535.59 756.263 1541.45 756.263C1549.61 756.263 1554.34 761.819 1554.34 769.532V789.223H1551.22V770.092C1551.22 763.464 1547.52 759.096 1541.03 759.096C1534.7 759.096 1529.84 763.909 1529.84 770.609V789.223H1526.74V757.021Z" fill="white"/>
<path d="M1563.24 773.194V773.068C1563.24 763.722 1569.82 756.269 1578.52 756.269C1587.56 756.269 1593.31 763.578 1593.31 773.134C1593.31 773.701 1593.31 773.889 1593.25 774.389H1566.52C1567.08 782.402 1572.85 787.072 1579.17 787.072C1584.14 787.072 1587.56 784.88 1590.21 782.029L1592.37 783.921C1589.08 787.464 1585.24 789.996 1579.04 789.996C1570.58 789.996 1563.24 783.233 1563.24 773.194ZM1589.96 771.612C1589.52 765.114 1585.8 759.096 1578.4 759.096C1572.02 759.096 1567.08 764.482 1566.52 771.612H1589.96Z" fill="white"/>
<path d="M1682.12 773.254V773.127C1682.12 762.631 1690.02 756.262 1697.78 756.262C1704.24 756.262 1708.4 759.914 1711.06 763.957V743.119H1714.14V789.223H1711.06V782.022C1708.26 786.246 1704.17 789.994 1697.78 789.994C1690.02 789.994 1682.12 783.745 1682.12 773.254ZM1711.25 773.194V773.067C1711.25 764.789 1704.81 759.226 1698.11 759.226C1691.09 759.226 1685.48 764.331 1685.48 772.997V773.127C1685.48 781.582 1691.36 787.017 1698.11 787.017C1704.81 787.017 1711.25 781.383 1711.25 773.194Z" fill="white"/>
<path d="M1723.68 773.194V773.068C1723.68 763.722 1730.25 756.269 1738.97 756.269C1748 756.269 1753.75 763.578 1753.75 773.134C1753.75 773.701 1753.75 773.889 1753.69 774.389H1726.97C1727.54 782.402 1733.29 787.072 1739.62 787.072C1744.59 787.072 1748 784.88 1750.66 782.029L1752.8 783.921C1749.5 787.464 1745.67 789.996 1739.47 789.996C1731.03 789.996 1723.68 783.233 1723.68 773.194ZM1750.39 771.612C1749.97 765.114 1746.23 759.096 1738.86 759.096C1732.48 759.096 1727.54 764.482 1726.97 771.612H1750.39Z" fill="white"/>
<path d="M1763.25 789.223H1766.34V743.127H1763.25V789.223Z" fill="white"/>
<path d="M1778.97 789.223H1782.09V743.127H1778.97V789.223Z" fill="white"/>
<path d="M1791.61 779.877V779.75C1791.61 773.069 1797.35 769.285 1805.69 769.285C1810.17 769.285 1813.28 769.845 1816.36 770.663V769.285C1816.36 762.77 1812.39 759.433 1805.74 759.433C1801.83 759.433 1798.62 760.499 1795.67 762.006L1794.52 759.282C1798.05 757.649 1801.51 756.51 1805.96 756.51C1810.3 756.51 1813.76 757.715 1816.12 760.059C1818.25 762.198 1819.38 765.175 1819.38 769.126V789.223H1816.36V783.859C1814.14 786.946 1810.17 789.994 1804.06 789.994C1798.05 789.994 1791.61 786.583 1791.61 779.877ZM1816.42 777.154V773.509C1813.71 772.809 1810.12 772.069 1805.5 772.069C1798.68 772.069 1794.89 775.081 1794.89 779.565V779.69C1794.89 784.359 1799.31 787.071 1804.24 787.071C1810.79 787.071 1816.42 783.041 1816.42 777.154Z" fill="white"/>
<path d="M1847.25 773.254V773.127C1847.25 764.09 1854.46 756.262 1863.69 756.262C1869.74 756.262 1873.54 759.027 1876.56 762.198L1874.36 764.475C1871.57 761.625 1868.42 759.178 1863.63 759.178C1856.3 759.178 1850.6 765.289 1850.6 772.997V773.127C1850.6 780.883 1856.47 787.071 1863.88 787.071C1868.42 787.071 1871.95 784.739 1874.66 781.709L1876.82 783.607C1873.54 787.338 1869.62 789.994 1863.69 789.994C1854.41 789.994 1847.25 782.275 1847.25 773.254Z" fill="white"/>
<path d="M1882.4 773.254V773.127C1882.4 764.09 1889.4 756.262 1898.99 756.262C1908.54 756.262 1915.48 763.957 1915.48 772.997V773.127C1915.48 782.149 1908.46 789.994 1898.86 789.994C1889.34 789.994 1882.4 782.275 1882.4 773.254ZM1912.14 773.254V773.127C1912.14 765.361 1906.31 759.178 1898.86 759.178C1891.22 759.178 1885.74 765.421 1885.74 772.997V773.127C1885.74 780.883 1891.54 787.071 1898.99 787.071C1906.64 787.071 1912.14 780.817 1912.14 773.254Z" fill="white"/>
<path d="M1925.02 757.021H1928.11V762.771C1930.2 759.433 1933.12 756.263 1938.87 756.263C1944.47 756.263 1947.95 759.475 1949.71 763.204C1951.79 759.625 1955.27 756.263 1961.34 756.263C1968.97 756.263 1973.72 761.632 1973.72 769.717V789.223H1970.61V770.092C1970.61 763.139 1967.01 759.096 1961.09 759.096C1955.65 759.096 1950.91 763.276 1950.91 770.465V789.223H1947.81V769.904C1947.81 763.204 1944.15 759.096 1938.42 759.096C1932.66 759.096 1928.11 764.157 1928.11 770.664V789.223H1925.02V757.021Z" fill="white"/>
<path d="M1984.47 776.714V757.022H1987.56V776.154C1987.56 782.782 1991.29 787.145 1997.79 787.145C2004.1 787.145 2008.95 782.337 2008.95 775.647V757.022H2012.07V789.223H2008.95V783.229C2006.81 787.023 2003.22 789.995 1997.33 789.995C1989.2 789.995 1984.47 784.421 1984.47 776.714Z" fill="white"/>
<path d="M2023.81 757.021H2026.9V763.011C2029.05 759.227 2032.66 756.263 2038.54 756.263C2046.67 756.263 2051.42 761.819 2051.42 769.532V789.223H2048.3V770.092C2048.3 763.464 2044.6 759.096 2038.09 759.096C2031.78 759.096 2026.9 763.909 2026.9 770.609V789.223H2023.81V757.021Z" fill="white"/>
<path d="M2062.61 748.621H2066.44V744.385H2062.61V748.621ZM2062.97 789.223H2066.08V757.021H2062.97V789.223Z" fill="white"/>
<path d="M2076.04 773.254V773.127C2076.04 764.09 2083.26 756.262 2092.46 756.262C2098.54 756.262 2102.32 759.027 2105.35 762.198L2103.16 764.475C2100.36 761.625 2097.23 759.178 2092.41 759.178C2085.08 759.178 2079.4 765.289 2079.4 772.997V773.127C2079.4 780.883 2085.28 787.071 2092.66 787.071C2097.23 787.071 2100.74 784.739 2103.44 781.709L2105.61 783.607C2102.32 787.338 2098.4 789.994 2092.46 789.994C2083.18 789.994 2076.04 782.275 2076.04 773.254Z" fill="white"/>
<path d="M2111.71 779.877V779.75C2111.71 773.069 2117.44 769.285 2125.79 769.285C2130.25 769.285 2133.34 769.845 2136.45 770.663V769.285C2136.45 762.77 2132.46 759.433 2125.84 759.433C2121.93 759.433 2118.7 760.499 2115.74 762.006L2114.59 759.282C2118.12 757.649 2121.6 756.51 2126.02 756.51C2130.38 756.51 2133.85 757.715 2136.19 760.059C2138.34 762.198 2139.47 765.175 2139.47 769.126V789.223H2136.45V783.859C2134.23 786.946 2130.25 789.994 2124.12 789.994C2118.12 789.994 2111.71 786.583 2111.71 779.877ZM2136.52 777.154V773.509C2133.79 772.809 2130.18 772.069 2125.59 772.069C2118.76 772.069 2114.98 775.081 2114.98 779.565V779.69C2114.98 784.359 2119.4 787.071 2124.32 787.071C2130.87 787.071 2136.52 783.041 2136.52 777.154Z" fill="white"/>
<path d="M2148.37 787.464L2171.64 759.812H2149.26V757.023H2176.23V758.793L2153.01 786.457H2176.23V789.223H2148.37V787.464Z" fill="white"/>
<path d="M2185.66 748.621H2189.48V744.385H2185.66V748.621ZM2186.04 789.223H2189.14V757.021H2186.04V789.223Z" fill="white"/>
<path d="M2199.11 773.254V773.127C2199.11 764.09 2206.12 756.262 2215.72 756.262C2225.24 756.262 2232.19 763.957 2232.19 772.997V773.127C2232.19 782.149 2225.19 789.994 2215.59 789.994C2206.07 789.994 2199.11 782.275 2199.11 773.254ZM2228.84 773.254V773.127C2228.84 765.361 2223.05 759.178 2215.59 759.178C2207.96 759.178 2202.46 765.421 2202.46 772.997V773.127C2202.46 780.883 2208.26 787.071 2215.72 787.071C2223.37 787.071 2228.84 780.817 2228.84 773.254Z" fill="white"/>
<path d="M2241.76 757.021H2244.85V763.011C2246.99 759.227 2250.6 756.263 2256.45 756.263C2264.61 756.263 2269.35 761.819 2269.35 769.532V789.223H2266.25V770.092C2266.25 763.464 2262.53 759.096 2256.02 759.096C2249.71 759.096 2244.85 763.909 2244.85 770.609V789.223H2241.76V757.021Z" fill="white"/>
<path d="M2278.27 773.194V773.068C2278.27 763.722 2284.83 756.269 2293.56 756.269C2302.57 756.269 2308.33 763.578 2308.33 773.134C2308.33 773.701 2308.33 773.889 2308.26 774.389H2281.54C2282.11 782.402 2287.87 787.072 2294.18 787.072C2299.17 787.072 2302.57 784.88 2305.23 782.029L2307.38 783.921C2304.1 787.464 2300.25 789.996 2294.05 789.996C2285.6 789.996 2278.27 783.233 2278.27 773.194ZM2304.98 771.612C2304.52 765.114 2300.83 759.096 2293.43 759.096C2287.03 759.096 2282.11 764.482 2281.54 771.612H2304.98Z" fill="white"/>
<path d="M2049.42 432.947H2121.43L2180.09 528.152L2238.77 432.947H2310.78V678.851H2242.98V537.643L2180.09 633.892H2178.67L2116.15 538.33V678.851H2049.42V432.947Z" fill="white"/>
<path d="M1624.66 773.58V773.453C1624.66 764.108 1631.23 756.654 1639.94 756.654C1648.98 756.654 1654.73 763.964 1654.73 773.52C1654.73 774.086 1654.73 774.274 1654.67 774.774H1627.95C1628.52 782.788 1634.27 787.457 1640.6 787.457C1645.57 787.457 1648.98 785.265 1651.64 782.414L1653.78 784.306C1650.48 787.849 1646.65 790.381 1640.45 790.381C1632.01 790.381 1624.66 783.618 1624.66 773.58ZM1651.37 771.997C1650.95 765.5 1647.21 759.481 1639.84 759.481C1633.46 759.481 1628.52 764.868 1627.95 771.997H1651.37Z" fill="white"/>
<defs>
<radialGradient id="paint0_radial_127_2" cx="0" cy="0" r="1" gradientUnits="userSpaceOnUse" gradientTransform="translate(46.4023 -368.473) rotate(-14.7412) scale(1679.25 1690.42)">
<stop stop-color="#7CC899"/>
<stop offset="1" stop-color="#2CC2E1"/>
</radialGradient>
<radialGradient id="paint1_radial_127_2" cx="0" cy="0" r="1" gradientUnits="userSpaceOnUse" gradientTransform="translate(46.4023 -368.473) rotate(-14.7412) scale(1679.26 1690.43)">
<stop stop-color="#7CC899"/>
<stop offset="1" stop-color="#2CC2E1"/>
</radialGradient>
<radialGradient id="paint2_radial_127_2" cx="0" cy="0" r="1" gradientUnits="userSpaceOnUse" gradientTransform="translate(46.4023 -368.473) rotate(-14.7412) scale(1679.26 1690.43)">
<stop stop-color="#7CC899"/>
<stop offset="1" stop-color="#2CC2E1"/>
</radialGradient>
<radialGradient id="paint3_radial_127_2" cx="0" cy="0" r="1" gradientUnits="userSpaceOnUse" gradientTransform="translate(46.4023 -368.473) rotate(-14.7412) scale(1679.38 1690.55)">
<stop stop-color="#7CC899"/>
<stop offset="1" stop-color="#2CC2E1"/>
</radialGradient>
<radialGradient id="paint4_radial_127_2" cx="0" cy="0" r="1" gradientUnits="userSpaceOnUse" gradientTransform="translate(46.4024 -368.473) rotate(-14.7412) scale(1679.69 1690.87)">
<stop stop-color="#7CC899"/>
<stop offset="1" stop-color="#2CC2E1"/>
</radialGradient>
<radialGradient id="paint5_radial_127_2" cx="0" cy="0" r="1" gradientUnits="userSpaceOnUse" gradientTransform="translate(47.1558 -368.472) rotate(-14.7412) scale(1679.17 1690.34)">
<stop stop-color="#7CC899"/>
<stop offset="1" stop-color="#2CC2E1"/>
</radialGradient>
<radialGradient id="paint6_radial_127_2" cx="0" cy="0" r="1" gradientUnits="userSpaceOnUse" gradientTransform="translate(46.4022 -368.473) rotate(-14.7412) scale(1679.51 1690.67)">
<stop stop-color="#7CC899"/>
<stop offset="1" stop-color="#2CC2E1"/>
</radialGradient>
<radialGradient id="paint7_radial_127_2" cx="0" cy="0" r="1" gradientUnits="userSpaceOnUse" gradientTransform="translate(46.4023 -368.473) rotate(-14.7412) scale(1679.59 1690.75)">
<stop stop-color="#7CC899"/>
<stop offset="1" stop-color="#2CC2E1"/>
</radialGradient>
<radialGradient id="paint8_radial_127_2" cx="0" cy="0" r="1" gradientUnits="userSpaceOnUse" gradientTransform="translate(46.4026 -368.473) rotate(-14.7412) scale(1679.31 1690.48)">
<stop stop-color="#7CC899"/>
<stop offset="1" stop-color="#2CC2E1"/>
</radialGradient>
<radialGradient id="paint9_radial_127_2" cx="0" cy="0" r="1" gradientUnits="userSpaceOnUse" gradientTransform="translate(46.4024 -368.473) rotate(-14.7413) scale(1679.47 1690.65)">
<stop stop-color="#7CC899"/>
<stop offset="1" stop-color="#2CC2E1"/>
</radialGradient>
<radialGradient id="paint10_radial_127_2" cx="0" cy="0" r="1" gradientUnits="userSpaceOnUse" gradientTransform="translate(46.4022 -368.473) rotate(-14.7412) scale(1679.35 1690.52)">
<stop stop-color="#7CC899"/>
<stop offset="1" stop-color="#2CC2E1"/>
</radialGradient>
<radialGradient id="paint11_radial_127_2" cx="0" cy="0" r="1" gradientUnits="userSpaceOnUse" gradientTransform="translate(46.4023 -368.473) rotate(-14.7412) scale(1679.54 1690.71)">
<stop stop-color="#7CC899"/>
<stop offset="1" stop-color="#2CC2E1"/>
</radialGradient>
<radialGradient id="paint12_radial_127_2" cx="0" cy="0" r="1" gradientUnits="userSpaceOnUse" gradientTransform="translate(46.4022 -368.473) rotate(-14.7412) scale(1679.55 1690.72)">
<stop stop-color="#7CC899"/>
<stop offset="1" stop-color="#2CC2E1"/>
</radialGradient>
<radialGradient id="paint13_radial_127_2" cx="0" cy="0" r="1" gradientUnits="userSpaceOnUse" gradientTransform="translate(46.4023 -368.473) rotate(-14.7412) scale(1679.46 1690.63)">
<stop stop-color="#7CC899"/>
<stop offset="1" stop-color="#2CC2E1"/>
</radialGradient>
<radialGradient id="paint14_radial_127_2" cx="0" cy="0" r="1" gradientUnits="userSpaceOnUse" gradientTransform="translate(46.4024 -368.473) rotate(-14.7412) scale(1679.43 1690.6)">
<stop stop-color="#7CC899"/>
<stop offset="1" stop-color="#2CC2E1"/>
</radialGradient>
<radialGradient id="paint15_radial_127_2" cx="0" cy="0" r="1" gradientUnits="userSpaceOnUse" gradientTransform="translate(46.4023 -368.473) rotate(-14.7412) scale(1679.61 1690.78)">
<stop stop-color="#7CC899"/>
<stop offset="1" stop-color="#2CC2E1"/>
</radialGradient>
<radialGradient id="paint16_radial_127_2" cx="0" cy="0" r="1" gradientUnits="userSpaceOnUse" gradientTransform="translate(46.4022 -368.472) rotate(-14.7412) scale(1679.17 1690.33)">
<stop stop-color="#7CC899"/>
<stop offset="1" stop-color="#2CC2E1"/>
</radialGradient>
<radialGradient id="paint17_radial_127_2" cx="0" cy="0" r="1" gradientUnits="userSpaceOnUse" gradientTransform="translate(46.4023 -368.473) rotate(-14.7413) scale(1679.34 1690.52)">
<stop stop-color="#7CC899"/>
<stop offset="1" stop-color="#2CC2E1"/>
</radialGradient>
<radialGradient id="paint18_radial_127_2" cx="0" cy="0" r="1" gradientUnits="userSpaceOnUse" gradientTransform="translate(46.4022 -368.473) rotate(-14.7412) scale(1679.02 1690.19)">
<stop stop-color="#7CC899"/>
<stop offset="1" stop-color="#2CC2E1"/>
</radialGradient>
<radialGradient id="paint19_radial_127_2" cx="0" cy="0" r="1" gradientUnits="userSpaceOnUse" gradientTransform="translate(46.4023 -368.473) rotate(-14.7413) scale(1679.45 1690.62)">
<stop stop-color="#7CC899"/>
<stop offset="1" stop-color="#2CC2E1"/>
</radialGradient>
</defs>
</svg>